<svg xmlns="http://www.w3.org/2000/svg" width="46" height="46" viewBox="0 0 46 46">
  <defs>
    <style>
      .cls-1 {
        fill: #bd081c;
        fill-rule: evenodd;
      }
    </style>
  </defs>
  <path id="Rectangle_1_copy_5" data-name="Rectangle 1 copy 5" class="cls-1" d="M1129,3218a23,23,0,1,1-23,23A23,23,0,0,1,1129,3218Zm2.91,29.01c-1.11,0-2.63.02-3.36-.89l-1.6,5.12a1.517,1.517,0,0,1-1.31.76,1.739,1.739,0,0,1-1.65-1.74c0-1.44,2.87-8.85,2.82-8.81a4.573,4.573,0,0,1-.81-2.45,3.171,3.171,0,0,1,2.99-3.12,2.262,2.262,0,0,1,2.01,2.41c0,1.82-1.01,2.41-1.01,3.99a1.621,1.621,0,0,0,1.71,1.73c3.19,0,4.3-2.5,4.3-4.91a6,6,0,1,0-12,0,7.458,7.458,0,0,0,.61,3.03,1.471,1.471,0,0,1,.14.76,1.376,1.376,0,0,1-1.39,1.52,1.426,1.426,0,0,1-1.25-.76,10.151,10.151,0,0,1-1.11-4.61,9.005,9.005,0,1,1,18.01,0C1139.15,3243.26,1136.92,3247.01,1131.91,3247.01Z" transform="translate(-1106 -3218)"/>
</svg>
